<?xml version="1.0" encoding="UTF-8"?>
<svg version="1.1" xmlns="http://www.w3.org/2000/svg" width="256" height="256">
<path d="M0 0 C0.73234863 0.17837402 1.46469727 0.35674805 2.21923828 0.54052734 C4.75285618 1.16306747 7.28273693 1.79948055 9.8125 2.4375 C11.30015869 2.8089917 11.30015869 2.8089917 12.81787109 3.18798828 C15.94325907 3.97116284 19.06578401 4.76482361 22.1875 5.5625 C23.69413208 5.94257202 23.69413208 5.94257202 25.23120117 6.33032227 C26.17326416 6.57451904 27.11532715 6.81871582 28.0859375 7.0703125 C28.92560059 7.28574707 29.76526367 7.50118164 30.63037109 7.72314453 C32.8125 8.4375 32.8125 8.4375 35.8125 10.4375 C35.26950479 21.20833978 33.30427483 31.6711372 31.35546875 42.25390625 C31.00752814 44.16092331 30.65982019 46.06798282 30.31233215 47.9750824 C29.58584507 51.95378 28.85482118 55.93161216 28.12084961 59.90893555 C27.18580749 64.97926733 26.26485562 70.05204458 25.34763622 75.12562656 C24.63449003 79.05875754 23.91246973 82.99022178 23.18798256 86.921278 C22.84491763 88.79002725 22.50485383 90.65933026 22.16798973 92.52920723 C17.00362435 121.12934433 17.00362435 121.12934433 5.88671875 129.96875 C1.17042778 133.02412494 -3.48594457 133.9351408 -9 134.5703125 C-9.69287109 134.65611572 -10.38574219 134.74191895 -11.09960938 134.83032227 C-12.79477467 135.03929523 -14.49103987 135.23931291 -16.1875 135.4375 C-16.416651 136.32318161 -16.645802 137.20886322 -16.88189697 138.12138367 C-19.05568605 146.52102225 -21.23234565 154.91991078 -23.41212845 163.31799603 C-24.53232602 167.63420471 -25.65146194 171.95068252 -26.76806641 176.26782227 C-27.84829676 180.44415991 -28.93145314 184.61972913 -30.0165329 188.79480934 C-30.4273404 190.3775075 -30.83714212 191.96046711 -31.24585724 193.54370689 C-33.66756586 202.92152314 -36.23814631 212.20890761 -39.1875 221.4375 C-37.5478125 221.5921875 -37.5478125 221.5921875 -35.875 221.75 C-30.49784816 222.4064566 -25.37571352 223.921092 -20.1875 225.4375 C-19.5625 227.3125 -19.5625 227.3125 -19.1875 229.4375 C-19.8475 230.0975 -20.5075 230.7575 -21.1875 231.4375 C-29.52834137 231.01260996 -38.06318752 228.10252686 -46.15209961 226.03344727 C-48.27520142 225.49359187 -50.40204514 224.97049602 -52.52929688 224.44726562 C-53.88567607 224.10258167 -55.2418061 223.7569154 -56.59765625 223.41015625 C-57.81590088 223.10343994 -59.03414551 222.79672363 -60.28930664 222.48071289 C-63.1875 221.4375 -63.1875 221.4375 -65.1875 218.4375 C-64.8575 217.4475 -64.5275 216.4575 -64.1875 215.4375 C-59.38671502 215.90209209 -54.73205768 216.50691168 -50.00341797 217.46337891 C-49.10186981 217.64526764 -48.20032166 217.82715637 -47.27145386 218.01455688 C-46.58374908 218.15412811 -45.89604431 218.29369934 -45.1875 218.4375 C-44.91410294 217.38958282 -44.64070587 216.34166565 -44.35902405 215.26199341 C-41.78633387 205.40218917 -39.21131004 195.54299701 -36.63398075 185.68440437 C-35.3089237 180.61559403 -33.98469926 175.54656918 -32.66235352 170.47705078 C-31.38697232 165.58770568 -30.1094356 160.69892854 -28.83038139 155.81054306 C-28.34198095 153.94237343 -27.85436691 152.07399802 -27.36754036 150.20541763 C-26.68727278 147.59489741 -26.00425113 144.98511276 -25.32055664 142.37548828 C-25.11843567 141.5972168 -24.9163147 140.81894531 -24.70806885 140.01708984 C-23.30155216 134.66560432 -23.30155216 134.66560432 -22.1875 132.4375 C-22.93 132.33695313 -23.6725 132.23640625 -24.4375 132.1328125 C-30.82296507 130.51830571 -35.47463474 124.50344045 -39.1796875 119.30859375 C-43.77029786 110.78571638 -43.42803444 100.82423893 -40.72540283 91.73561096 C-39.59604409 88.25586179 -38.36691982 84.81584731 -37.125 81.375 C-36.58799335 79.83634483 -36.05339144 78.29684862 -35.52099609 76.7565918 C-34.37168205 73.43548838 -33.21286362 70.11789886 -32.04931641 66.80175781 C-30.06361708 61.11302603 -28.15669577 55.3991822 -26.26171875 49.6796875 C-25.76849373 48.19128105 -25.76849373 48.19128105 -25.26530457 46.67280579 C-24.60481019 44.67805495 -23.94460647 42.68320785 -23.28469849 40.68826294 C-20.60757702 32.59723329 -17.91389511 24.51206557 -15.1875 16.4375 C-14.90386597 15.59346619 -14.62023193 14.74943237 -14.32800293 13.87982178 C-13.51599769 11.47295228 -12.69348096 9.0699649 -11.8671875 6.66796875 C-11.62517609 5.94740799 -11.38316467 5.22684723 -11.13381958 4.48445129 C-8.7138182 -2.46936806 -6.47425485 -1.61671138 0 0 Z M-4.1875 5.4375 C-8.1801199 14.77642241 -11.25877714 24.42616953 -14.4375 34.0625 C-14.99711474 35.75139525 -15.55700834 37.44019813 -16.1171875 39.12890625 C-17.47717558 43.23071296 -18.83338392 47.33375124 -20.1875 51.4375 C-18.91242639 51.92396938 -17.63655504 52.40834818 -16.36035156 52.8918457 C-15.64993713 53.16180862 -14.93952271 53.43177155 -14.20758057 53.70991516 C-2.01229062 58.10236773 10.28058057 56.52615324 22.8125 54.4375 C25.1225 41.2375 27.4325 28.0375 29.8125 14.4375 C26.05875 13.32375 22.305 12.21 18.4375 11.0625 C17.27557129 10.71525879 16.11364258 10.36801758 14.91650391 10.01025391 C8.59401956 8.15095213 2.30182029 6.59143962 -4.1875 5.4375 Z M-22.1875 57.4375 C-24.20555118 63.0484797 -26.19821822 68.66763409 -28.16894531 74.29541016 C-28.8412544 76.20436831 -29.52016365 78.11101639 -30.20605469 80.01513672 C-36.93929023 97.66782457 -36.93929023 97.66782457 -34.1875 115.8125 C-30.68211871 122.00666808 -25.08000902 126.49345899 -18.1875 128.4375 C-11.18898782 130.05254127 -5.3759058 129.09547102 0.9375 125.8125 C1.88625 125.02875 2.835 124.245 3.8125 123.4375 C4.69421875 122.74140625 4.69421875 122.74140625 5.59375 122.03125 C11.87549247 116.17538838 12.81748336 108.64023144 14.24853516 100.57324219 C14.92626672 96.80493735 15.65636469 93.04741871 16.38671875 89.2890625 C17.48548388 83.59381728 18.57922736 77.89765129 19.640625 72.1953125 C19.9794873 70.38764404 19.9794873 70.38764404 20.32519531 68.54345703 C20.91583166 65.30288211 20.91583166 65.30288211 20.8125 61.4375 C20.22984375 61.45321045 19.6471875 61.4689209 19.046875 61.48510742 C6.52224505 61.77680723 -4.97113999 61.30233291 -17.1875 58.4375 C-18.85333921 58.10005576 -20.51987318 57.7659961 -22.1875 57.4375 Z " fill="#E8A0B0" transform="translate(83.1875,19.5625)"/>
<path d="M0 0 C2.96582746 6.36202086 5.4196656 12.79380881 7.65234375 19.4453125 C7.98924225 20.43742233 8.32614075 21.42953217 8.67324829 22.45170593 C9.76616642 25.67452602 10.85253279 28.89949514 11.9375 32.125 C12.69192688 34.36419295 13.44640328 36.60336922 14.20092773 38.8425293 C15.34852888 42.24859922 16.49564725 45.65482518 17.64070129 49.06175232 C19.7435276 55.30986327 21.87484208 61.54659354 24.05033875 67.76977539 C25.28034909 71.29218912 26.49561916 74.8195891 27.70877075 78.34783936 C28.27041761 79.96927721 28.83882386 81.58839214 29.41452026 83.20489502 C33.63232129 95.06413711 36.90099749 106.61267331 31.33203125 118.71484375 C27.79421184 124.78412338 23.17058926 129.63422404 17 133 C16.01 133 15.02 133 14 133 C14.33596191 134.1439624 14.67192383 135.2879248 15.01806641 136.46655273 C19.39858937 151.5201746 23.3754622 166.67364601 27.28857422 181.85375977 C28.20463925 185.40658978 29.1277358 188.95755437 30.05245018 192.50814152 C30.77123116 195.27220234 31.48560857 198.03738693 32.19871902 200.80291557 C32.70105012 202.74689294 33.2077056 204.68975123 33.71444702 206.63258362 C34.0154129 207.80578659 34.31637878 208.97898956 34.62646484 210.18774414 C34.8926059 211.21694473 35.15874695 212.24614532 35.43295288 213.30653381 C36 216 36 216 36 220 C37.02480469 219.69964844 38.04960937 219.39929688 39.10546875 219.08984375 C40.46598138 218.70514708 41.82666783 218.32106479 43.1875 217.9375 C43.86103516 217.73833984 44.53457031 217.53917969 45.22851562 217.33398438 C49.17416316 216.23690189 52.05551294 215.78218749 56 217 C55.67 218.65 55.34 220.3 55 222 C49.52062925 223.43032727 44.03966483 224.85431422 38.55712891 226.27246094 C36.69241951 226.75574794 34.8281568 227.24076185 32.96435547 227.72753906 C30.28468649 228.42707971 27.60347046 229.12038622 24.921875 229.8125 C24.08944275 230.03123779 23.2570105 230.24997559 22.39935303 230.4753418 C21.61884583 230.67554932 20.83833862 230.87575684 20.03417969 231.08203125 C19.00825714 231.34850464 19.00825714 231.34850464 17.96160889 231.62036133 C16 232 16 232 12 232 C10.875 228.25 10.875 228.25 12 226 C14.44155613 225.19302005 16.82519005 224.50322609 19.3125 223.875 C20.32860352 223.60236328 20.32860352 223.60236328 21.36523438 223.32421875 C24.72201807 222.45138936 27.50580142 222 31 222 C30.66983887 220.87634033 30.33967773 219.75268066 29.99951172 218.5949707 C25.25356153 202.28822269 20.98040188 185.86167659 16.7074585 169.42651367 C15.72344616 165.64389726 14.73658542 161.86202408 13.75 158.08007812 C11.83062388 150.72075614 9.91428329 143.36064856 8 136 C6.98679688 135.89042969 5.97359375 135.78085938 4.9296875 135.66796875 C3.57805539 135.50840107 2.22649657 135.34821167 0.875 135.1875 C-0.12273437 135.08211914 -0.12273437 135.08211914 -1.140625 134.97460938 C-9.52208304 133.94746991 -15.32873944 130.00790758 -21 124 C-26.8083811 115.67647633 -27.96974792 105.56960449 -29.6875 95.8125 C-30.01693419 94.0039954 -30.34769892 92.19573274 -30.6796875 90.38769531 C-31.40197495 86.43975948 -32.11474675 82.49024644 -32.82177734 78.53955078 C-33.87136493 72.68948749 -34.9499577 66.84507054 -36.03511047 61.00151062 C-36.96629338 55.98696855 -37.89200299 50.97142568 -38.81655884 45.95565796 C-39.2710079 43.49160854 -39.72654835 41.02776016 -40.18319702 38.56411743 C-40.82550826 35.09059487 -41.46061404 31.61583014 -42.09375 28.140625 C-42.3837664 26.58232216 -42.3837664 26.58232216 -42.67964172 24.99253845 C-43.53311698 20.26992288 -44.24944616 15.82330738 -44 11 C-39.29832261 8.88219179 -34.75188549 7.26359199 -29.74609375 5.95703125 C-29.08215103 5.78370773 -28.41820831 5.61038422 -27.73414612 5.43180847 C-26.34244932 5.07031244 -24.95001534 4.71164343 -23.55688477 4.35571289 C-21.43702957 3.81237943 -19.32108518 3.25537382 -17.20507812 2.69726562 C-15.8439643 2.34552386 -14.48264274 1.99458476 -13.12109375 1.64453125 C-11.28695923 1.17043823 -11.28695923 1.17043823 -9.41577148 0.68676758 C-6.16865853 0.03391012 -3.30002776 -0.13275793 0 0 Z M-11.80859375 7.71484375 C-12.49051285 7.89004044 -13.17243195 8.06523712 -13.87501526 8.2457428 C-15.32024252 8.61753736 -16.76530113 8.98998802 -18.21020508 9.36303711 C-20.42399761 9.93401747 -22.63871841 10.50129045 -24.85351562 11.06835938 C-26.25526686 11.42946036 -27.65696149 11.79078123 -29.05859375 12.15234375 C-29.72322128 12.3221727 -30.38784882 12.49200165 -31.07261658 12.66697693 C-34.62479183 13.58629249 -34.62479183 13.58629249 -38 15 C-37.32522267 18.92874642 -36.64973233 22.85736957 -35.97363281 26.78588867 C-35.63310247 28.76540016 -35.29310721 30.74500367 -34.953125 32.72460938 C-34.30598024 36.48375909 -33.65344338 40.24194076 -33 44 C-32.81018555 45.11165527 -32.62037109 46.22331055 -32.42480469 47.36865234 C-32.25110352 48.36461426 -32.07740234 49.36057617 -31.8984375 50.38671875 C-31.74810059 51.25901123 -31.59776367 52.13130371 -31.44287109 53.0300293 C-31.18625958 54.992005 -31.18625958 54.992005 -30 56 C-16.74148086 58.34367763 -0.22604375 58.41057296 12 52 C10.36823869 47.05482684 8.73233307 42.11105017 7.09277344 37.16845703 C6.53697832 35.49108926 5.98226617 33.8133622 5.42871094 32.13525391 C1.08596034 18.9316249 1.08596034 18.9316249 -4 6 C-6.58730802 6 -9.29977384 7.06810627 -11.80859375 7.71484375 Z M6.875 59.4375 C-5.12614432 62.74171116 -16.68581854 62.29408781 -29 61 C-28.29624613 70.07373327 -26.74441361 78.97063975 -25.15356445 87.92260742 C-24.68830531 90.55793855 -24.23958829 93.19576886 -23.79101562 95.83398438 C-23.49060033 97.53663809 -23.18920089 99.23911851 -22.88671875 100.94140625 C-22.75738449 101.71666153 -22.62805023 102.49191681 -22.49479675 103.29066467 C-20.67716342 113.24065121 -17.20420249 120.25297421 -8.875 126.25 C-2.92149146 129.87387476 3.20570367 129.6016201 10 129 C14.10815005 127.66024782 17.41375335 125.3908311 21 123 C21 122.34 21 121.68 21 121 C21.66 121 22.32 121 23 121 C23.86553694 119.60277608 24.69037037 118.18034568 25.5 116.75 C25.9640625 115.96109375 26.428125 115.1721875 26.90625 114.359375 C30.73679909 102.59411709 26.04225596 91.63983993 22.125 80.5625 C21.56215126 78.92569695 21.00094141 77.28832937 20.44140625 75.65039062 C17.39491995 66.76086409 17.39491995 66.76086409 14 58 C11.43109315 58 9.34335171 58.71899651 6.875 59.4375 Z " fill="#E8A0B0" transform="translate(181,19)"/>
<path d="M0 0 C1.65 0 3.3 0 5 0 C4.61471495 6.16456078 2.52913975 9.98627748 -1 15 C-2.32 14.67 -3.64 14.34 -5 14 C-4.53411505 8.29290936 -3.06242216 4.84060277 0 0 Z " fill="#E99FB2" transform="translate(141,9)"/>
<path d="M0 0 C1.65 0 3.3 0 5 0 C5.87144869 1.5529276 6.72153657 3.11785436 7.5625 4.6875 C8.03816406 5.55761719 8.51382813 6.42773438 9.00390625 7.32421875 C10.14268368 10.38328753 9.92718689 11.91863039 9 15 C6.26214592 14.64899307 5.25118702 14.31993294 3.515625 12.109375 C2.88914062 10.94148438 2.88914062 10.94148438 2.25 9.75 C1.82203125 8.98171875 1.3940625 8.2134375 0.953125 7.421875 C-0.09006898 4.77113619 -0.18016322 2.8225571 0 0 Z " fill="#E9A0B2" transform="translate(110,9)"/>
<path d="M0 0 C1.65 0.33 3.3 0.66 5 1 C5 5.29 5 9.58 5 14 C3.35 14.33 1.7 14.66 0 15 C-1 14 -1 14 -1.1328125 11.09375 C-1.13023438 9.9078125 -1.12765625 8.721875 -1.125 7.5 C-1.12757812 6.3140625 -1.13015625 5.128125 -1.1328125 3.90625 C-1 1 -1 1 0 0 Z " fill="#E8A0AF" transform="translate(126,5)"/>
</svg>
